<svg width="1440" height="1024" viewBox="0 0 1440 1024" fill="none" xmlns="http://www.w3.org/2000/svg">
<path opacity="0.1" fill-rule="evenodd" clip-rule="evenodd" d="M0 0H1440V1024H0V0ZM2.25 1.82857H177.75V144.457H2.25V1.82857ZM182.25 1.82857H357.75V144.457H182.25V1.82857ZM537.75 1.82857H362.25V144.457H537.75V1.82857ZM542.25 1.82857H717.75V144.457H542.25V1.82857ZM897.75 1.82857H722.25V144.457H897.75V1.82857ZM902.25 1.82857H1077.75V144.457H902.25V1.82857ZM1257.75 1.82857H1082.25V144.457H1257.75V1.82857ZM1262.25 1.82857H1437.75V144.457H1262.25V1.82857ZM177.75 148.114H2.25V290.743H177.75V148.114ZM182.25 148.114H357.75V290.743H182.25V148.114ZM537.75 148.114H362.25V290.743H537.75V148.114ZM542.25 148.114H717.75V290.743H542.25V148.114ZM897.75 148.114H722.25V290.743H897.75V148.114ZM902.25 148.114H1077.75V290.743H902.25V148.114ZM1257.75 148.114H1082.25V290.743H1257.75V148.114ZM1262.25 148.114H1437.75V290.743H1262.25V148.114ZM177.75 294.4H2.25V437.029H177.75V294.4ZM182.25 294.4H357.75V437.029H182.25V294.4ZM537.75 294.4H362.25V437.029H537.75V294.4ZM542.25 294.4H717.75V437.029H542.25V294.4ZM897.75 294.4H722.25V437.029H897.75V294.4ZM902.25 294.4H1077.75V437.029H902.25V294.4ZM1257.75 294.4H1082.25V437.029H1257.75V294.4ZM1262.25 294.4H1437.75V437.029H1262.25V294.4ZM177.75 440.686H2.25V583.314H177.75V440.686ZM182.25 440.686H357.75V583.314H182.25V440.686ZM537.75 440.686H362.25V583.314H537.75V440.686ZM542.25 440.686H717.75V583.314H542.25V440.686ZM897.75 440.686H722.25V583.314H897.75V440.686ZM902.25 440.686H1077.75V583.314H902.25V440.686ZM1257.75 440.686H1082.25V583.314H1257.75V440.686ZM1262.25 440.686H1437.75V583.314H1262.25V440.686ZM177.75 586.971H2.25V729.6H177.75V586.971ZM182.25 586.971H357.75V729.6H182.25V586.971ZM537.75 586.971H362.25V729.6H537.75V586.971ZM542.25 586.971H717.75V729.6H542.25V586.971ZM897.75 586.971H722.25V729.6H897.75V586.971ZM902.25 586.971H1077.75V729.6H902.25V586.971ZM1257.75 586.971H1082.25V729.6H1257.75V586.971ZM1262.25 586.971H1437.75V729.6H1262.25V586.971ZM177.75 733.257H2.25V875.886H177.75V733.257ZM182.25 733.257H357.75V875.886H182.25V733.257ZM537.75 733.257H362.25V875.886H537.75V733.257ZM542.25 733.257H717.75V875.886H542.25V733.257ZM897.75 733.257H722.25V875.886H897.75V733.257ZM902.25 733.257H1077.75V875.886H902.25V733.257ZM1257.75 733.257H1082.25V875.886H1257.75V733.257ZM1262.25 733.257H1437.75V875.886H1262.25V733.257ZM177.75 879.543H2.25V1022.17H177.75V879.543ZM182.25 879.543H357.75V1022.17H182.25V879.543ZM537.75 879.543H362.25V1022.17H537.75V879.543ZM542.25 879.543H717.75V1022.17H542.25V879.543ZM897.75 879.543H722.25V1022.17H897.75V879.543ZM902.25 879.543H1077.75V1022.17H902.25V879.543ZM1257.75 879.543H1082.25V1022.17H1257.75V879.543ZM1262.25 879.543H1437.75V1022.17H1262.25V879.543Z" fill="black" fill-opacity="0.3" style="fill:black;fill-opacity:0.3;"/>
</svg>
